PathFileType	4	(X/Y/Z)	C:\Users\WrightLab\Desktop\Jo\P5V23.trc
DataRate	CameraRate	NumFrames	NumMarkers	Units	OrigDataRate	OrigDataStartFrame	OrigNumFrames
100.00	100.00	       13	19	mm	100.00	370	       739
Frame#	Time	Headset_Front			Headset_Back			Headset_Left			Headset_Right			Left_Shoulder			Right_Shoulder			Sternum			C7			Left Elbow			Right Elbow			Left Wrist			Right Wrist			Left ASIS			Right ASIS			S2			Left Knee			Right Knee			Left Ankle			Right Ankle			
		X1	Y1	Z1	X2	Y2	Z2	X3	Y3	Z3	X4	Y4	Z4	X5	Y5	Z5	X6	Y6	Z6	X7	Y7	Z7	X8	Y8	Z8	X9	Y9	Z9	X10	Y10	Z10	X11	Y11	Z11	X12	Y12	Z12	X13	Y13	Z13	X14	Y14	Z14	X15	Y15	Z15	X16	Y16	Z16	X17	Y17	Z17	X18	Y18	Z18	X19	Y19	Z19	

370	3.690	-72.02208	1425.17957	-271.41159				-33.18387	1568.06628	-421.98544	-186.72829	1522.81042	-252.19746	-66.72814	1478.87170	-630.44952	-302.06430	1423.22449	-309.88971	-149.21361	1282.70459	-423.20862	-303.81564	1503.03027	-534.90869	-19.80514	1282.93323	-558.87799	-261.08160	1200.00488	-153.46066	-56.55410	1225.09656	-748.19513	-46.68197	1148.91553	-19.46588	-68.05445	911.90887	-482.66843	-301.91339	933.46222	-325.89429	-319.78851	954.44006	-637.78375	-54.96766	479.47455	-405.33984	-400.73679	473.31497	-414.07104	-46.23861	85.91315	-337.56601	-433.94891	96.32509	-619.78424	
371	3.700	-70.11137	1424.75903	-267.48642				-29.30809	1568.29858	-415.78830	-183.83717	1522.74719	-247.87276	-62.56357	1480.08459	-625.84119	-297.33734	1424.45703	-305.39954	-145.06950	1283.49084	-418.36011	-300.22403	1503.24512	-529.08478	-18.80352	1281.32739	-553.29382	-255.56577	1200.64453	-148.55161	-53.59671	1225.65637	-743.64886	-39.89085	1149.30139	-15.76267	-64.91532	912.43298	-477.01413	-298.20688	933.87329	-320.78970	-315.79221	955.17737	-631.50610	-50.56850	482.22156	-400.22012	-396.66180	471.99902	-407.62292	-45.70129	86.05196	-337.68942	-433.92130	99.22547	-619.07294	
372	3.710	-65.07827	1424.68396	-260.17450				-25.51734	1568.40967	-411.11758	-179.58244	1523.57617	-242.71359	-60.02727	1479.49280	-620.72662	-292.05957	1425.51648	-298.77527	-141.26428	1283.65247	-413.09781	-296.24100	1503.30054	-523.40582	-15.86805	1281.12561	-548.23944	-249.84715	1201.10657	-143.82849	-50.58162	1225.54419	-739.13208	-33.74398	1150.09265	-12.09566	-61.03270	914.12573	-471.57016	-293.82571	934.46747	-315.62897	-312.39117	955.71393	-626.44952	-47.05560	484.09653	-394.72598	-393.70407	472.40112	-400.90985	-45.62134	85.42715	-336.38556	-432.76254	102.18909	-616.01251	
373	3.720	-62.32600	1424.09607	-255.46219				-21.51497	1568.44580	-405.56760	-176.46648	1522.56030	-238.29941	-56.50031	1480.46350	-614.76593	-288.78003	1425.49170	-294.53421	-137.74448	1283.91382	-408.64862	-292.91425	1503.95129	-517.68781	-12.77980	1281.02869	-543.70728	-244.28520	1202.03857	-139.01466	-47.66413	1226.12256	-734.21649	-27.83635	1150.68713	-8.39060	-59.50990	914.84241	-466.37650	-289.77853	934.76184	-310.75674	-309.05005	956.08118	-619.08014	-43.80907	486.38190	-390.36960	-390.14255	471.15305	-393.43356	-45.34413	85.13181	-336.06403	-432.08179	104.93706	-614.81311	
374	3.730	-58.59050	1424.52087	-249.99913				-18.17315	1568.31104	-400.21780	-172.84500	1523.89563	-233.00926	-52.84263	1481.32983	-609.64679	-284.30368	1426.94714	-289.18274	-133.41060	1284.43909	-403.78754	-289.77530	1504.97498	-512.61249	-10.62720	1281.30566	-537.95850	-238.87317	1202.40759	-134.37630	-44.27694	1226.07043	-727.52448	-21.38197	1151.20471	-4.70282	-57.54202	915.14172	-461.89130	-285.97202	934.98505	-305.08353	-306.35614	956.76440	-613.22900	-40.67329	487.76291	-385.50568	-385.97211	471.97363	-386.28091	-45.36261	85.04710	-335.79105	-431.78909	109.10826	-611.26758	
375	3.740	-55.26842	1424.64453	-244.77798				-14.12427	1567.94922	-395.20853	-169.16525	1523.75085	-227.83376	-50.42351	1480.53101	-605.33832	-278.04691	1428.40735	-280.26352	-130.16142	1284.91797	-398.44754	-286.40100	1505.67957	-506.55917	-8.20261	1280.98389	-533.01837	-233.63908	1203.29358	-128.93430	-41.31695	1226.98755	-723.90356	-15.19274	1151.85388	-1.19433	-54.15071	916.20300	-457.70853	-282.28479	934.66168	-300.90283	-303.94504	957.70819	-607.76465	-37.80717	489.06757	-382.11020	-382.32468	471.19113	-378.12057	-45.79567	84.98324	-335.52972	-431.01489	113.58925	-607.43805	
376	3.750	-51.41604	1425.74451	-239.62352				-10.62968	1568.30396	-390.61099	-166.22067	1525.07813	-222.47893	-47.16666	1481.74609	-600.16260	-274.04440	1429.51038	-274.24988	-126.51978	1285.02405	-394.49997	-283.06302	1506.56641	-501.43207	-4.73047	1281.67126	-528.60052	-229.05954	1203.58459	-123.73027	-38.21227	1227.18140	-718.46967	-9.76872	1152.42566	2.27284	-50.52450	917.29755	-453.96960	-277.77054	935.74384	-296.50391	-301.55237	958.38867	-601.02911	-35.36559	489.95566	-378.42194	-377.59491	472.85553	-369.78656	-46.14056	85.16811	-335.16223	-430.93674	118.13322	-603.96802	
377	3.760	-47.56288	1425.09937	-234.33633				-7.72003	1567.92200	-384.30829	-161.61533	1524.26672	-216.91385	-45.01405	1481.24817	-595.24731	-272.76181	1428.99951	-273.48251	-123.65964	1286.01624	-389.45798	-280.08847	1507.65601	-496.07709	-2.76022	1281.87158	-523.27808	-224.93388	1204.25488	-119.09441	-35.46326	1227.30713	-713.92041	-3.71344	1152.31543	6.45726	-47.28706	917.61847	-449.16205	-274.18927	935.58270	-291.17844	-298.94727	959.41095	-594.44287	-32.39977	489.62772	-374.69510	-374.07773	471.51736	-363.28342	-46.45565	85.35364	-335.14917	-430.83975	122.12415	-600.19238	
378	3.770	-44.78474	1424.58118	-230.76691				-3.79291	1567.63367	-380.03137	-158.57874	1524.92798	-211.60429	-42.60007	1481.38806	-590.19678	-267.18457	1430.75720	-265.89612	-121.26363	1286.61169	-385.27100	-276.73340	1508.05688	-490.34073	-0.20441	1281.81091	-517.70416	-219.37263	1205.00305	-113.26168	-32.78455	1228.45654	-710.39417	2.24125	1152.95789	9.75593	-44.65955	919.07184	-446.03494	-270.73080	935.95184	-287.06589	-296.51486	960.74908	-588.94476	-30.01764	490.08005	-372.35971	-368.62869	472.53571	-353.96295	-46.69045	85.75745	-334.70868	-429.37381	126.37346	-595.77185	
379	3.780	-41.46948	1424.70703	-225.59331				-0.71288	1568.04431	-375.43280	-154.60138	1524.05469	-206.94420	-39.48347	1482.43713	-585.58148	-264.88632	1431.03979	-262.63361	-119.02429	1286.71155	-380.10681	-273.84875	1509.38757	-485.19879	2.44262	1282.48010	-514.01929	-214.51501	1206.17590	-109.88131	-29.90354	1228.75403	-704.41302	8.13510	1153.75659	13.14717	-42.32217	918.79401	-442.75647	-267.55389	936.17651	-282.36005	-294.04736	961.92859	-582.93451	-28.25508	490.76883	-370.19519	-365.14969	471.97308	-345.58359	-46.95213	85.91895	-334.56210	-429.16541	130.63065	-590.99445	
380	3.790	-38.41010	1425.03333	-221.91934				2.67615	1568.00916	-371.44385	-151.22256	1524.88147	-201.91203	-36.44670	1484.01001	-580.27728	-259.46774	1431.95923	-256.17014	-116.08121	1286.86084	-375.19885	-271.33359	1510.11658	-479.81378	4.12199	1282.88110	-509.11981	-209.27748	1206.95264	-105.00332	-27.60380	1229.69861	-700.55658	13.96709	1154.84387	15.98829	-40.90826	919.23779	-439.50201	-266.30862	936.77301	-279.95963	-291.83948	963.13269	-578.13940	-26.02620	490.52795	-367.58994	-360.66782	473.62625	-335.74432	-47.58814	86.14825	-334.09372	-428.81146	135.15898	-586.26495	
381	3.800	-36.43120	1424.16626	-218.63696				5.78601	1567.63391	-366.43127	-148.71683	1524.38452	-197.78871	-34.42583	1483.19812	-576.46838	-254.47340	1433.93323	-248.52516	-113.72937	1287.47522	-371.28656	-268.66211	1511.24524	-475.74771	5.83130	1283.64343	-504.58353	-203.97972	1208.07361	-101.28941	-24.77225	1229.98474	-695.93420	19.64929	1155.68127	18.91678	-40.41903	918.40247	-436.30780	-264.11469	937.52216	-276.77777	-289.32581	964.37042	-572.53290	-24.01686	490.94244	-366.29321	-357.78116	474.19730	-326.60825	-47.84870	86.36246	-333.97995	-428.40457	139.47926	-580.75232	
382	3.810	-32.62443	1423.94836	-212.98831				8.75710	1567.73730	-362.49451	-145.28859	1525.47083	-193.21988	-31.50814	1484.94043	-572.08514	-250.42432	1434.74084	-243.11589	-111.40860	1287.67883	-366.20416	-266.08780	1511.92749	-470.09470	8.36950	1283.93494	-500.02347	-198.32411	1208.78064	-97.42825	-22.53615	1230.87842	-690.94836	25.46329	1156.57275	21.76055	-37.02135	918.58344	-433.56793	-262.39267	937.88910	-274.41824	-287.36612	965.11731	-568.13147	-22.36995	490.23364	-364.48355	-353.95282	474.43481	-314.99341	-47.99062	86.37875	-333.93130	-427.76276	144.20737	-575.97296	
